<?xml version="1.0" standalone="no"?><!DOCTYPE svg PUBLIC "-//W3C//DTD SVG 1.1//EN" "http://www.w3.org/Graphics/SVG/1.1/DTD/svg11.dtd"><svg t="1672719033105" class="icon" viewBox="0 0 1024 1024" version="1.1" xmlns="http://www.w3.org/2000/svg" p-id="1354" width="256" height="256" xmlns:xlink="http://www.w3.org/1999/xlink"><path d="M78.769 0h630.154c52.513 0 78.769 26.256 78.769 78.769v157.539H708.9V141.81c0-42.007-21.003-63.01-63.01-63.01H141.81c-42.007 0-63.01 21.003-63.01 63.01v504.08c0 42.007 21.003 63.01 63.01 63.01h94.498v78.792H78.769C26.256 787.692 0 761.436 0 708.923V78.769C0 26.256 26.256 0 78.769 0z" p-id="1355" fill="#ffffff"></path><path d="M315.077 236.308h630.154c26.256 0 45.948 6.564 59.077 19.692 13.128 13.128 19.692 32.821 19.692 59.077v630.154c0 26.256-6.564 45.948-19.692 59.077-13.129 13.128-32.821 19.692-59.077 19.692H315.077c-26.256 0-45.949-6.564-59.077-19.692-13.128-13.129-19.692-32.821-19.692-59.077V315.077c0-26.256 6.564-45.949 19.692-59.077s32.821-19.692 59.077-19.692z m15.775 94.544c-10.501 10.502-15.752 26.255-15.752 47.258v504.08c0 21.003 5.251 36.756 15.752 47.258 10.502 10.501 26.255 15.752 47.258 15.752h504.08c21.003 0 36.756-5.251 47.258-15.752 10.501-10.502 15.752-26.254 15.752-47.258V378.11c0-21.004-5.251-36.756-15.752-47.258-10.502-10.501-26.254-15.752-47.258-15.752H378.11c-21.004 0-36.756 5.251-47.258 15.752z" p-id="1356" fill="#ffffff"></path><path d="M354.462 433.23h236.307V512H354.462v-78.77z m315.076 0h236.308V512H669.538v-78.77zM354.462 708.923h78.769v-78.77H512v78.77h78.77v78.77H512v78.769h-78.77v-78.77h-78.768v-78.769z m315.076 0h78.77v-78.77h78.769v78.77h78.77v78.77h-78.77v78.769h-78.77v-78.77h-78.769v-78.769z" p-id="1357" fill="#ffffff"></path></svg>